<?xml version="1.0" standalone="no"?>
<!DOCTYPE svg PUBLIC "-//W3C//DTD SVG 20010904//EN"
 "http://www.w3.org/TR/2001/REC-SVG-20010904/DTD/svg10.dtd">
<svg version="1.0" xmlns="http://www.w3.org/2000/svg"
 width="16.000000pt" height="16.000000pt" viewBox="0 0 16.000000 16.000000"
 preserveAspectRatio="xMidYMid meet">
<metadata>
Created by potrace 1.11, written by Peter Selinger 2001-2013
</metadata>
<g transform="translate(0.000000,16.000000) scale(0.008000,-0.008000)"
fill="#000000" stroke="none">
<path d="M322 1703 c-18 -9 -43 -30 -55 -47 -22 -31 -22 -34 -25 -499 -3 -518
-3 -513 62 -560 29 -21 43 -22 234 -25 l203 -3 -7 -22 c-15 -49 -86 -275 -99
-314 -8 -24 -10 -43 -5 -43 8 0 433 278 457 299 7 6 15 11 18 11 3 0 27 16 54
35 l48 35 213 0 c240 0 263 5 306 70 l25 37 -3 474 c-3 472 -3 474 -25 505
-47 66 -24 64 -730 64 -567 0 -642 -2 -671 -17z"/>
</g>
</svg>
